<svg xmlns="http://www.w3.org/2000/svg" width="468.85" height="499.997"><defs><linearGradient id="a" x1="-1.604" y1="6.792" x2="-1.604" y2="6.3" gradientUnits="objectBoundingBox"><stop offset=".21" stop-color="#fff" stop-opacity="0"/><stop offset="1" stop-color="#fff" stop-opacity=".2"/></linearGradient><linearGradient id="b" x1=".175" y1="1.691" x2=".175" y2="2.041" gradientUnits="objectBoundingBox"><stop offset="0" stop-color="#e9eaf2" stop-opacity=".8"/><stop offset="1" stop-color="#e9eaf2" stop-opacity="0"/></linearGradient></defs><g data-name="Group 343"><g data-name="Слой 1"><g transform="translate(-.04 -.003)"><path data-name="Path 342" d="m450 384.63-250.07-144.4c-3.51-2-6.35-7.46-6.35-12.13V34.63c0-4.68 2.84-6.83 6.35-4.8L450 174.23c3.51 2 6.35 7.46 6.35 12.13v193.47c.04 4.68-2.8 6.83-6.35 4.8Z" fill="#b1b4c4"/><path data-name="Path 343" d="m451.33 386.63 2.77-1.6-1.2-8.21Z" fill="#b1b4c4"/><path data-name="Path 344" d="m193.13 31 2.73-1.58 3.92 2.24s-4.18.63-4.28.61-2.37-1.27-2.37-1.27Z" fill="#b1b4c4"/><path data-name="Path 345" d="M447.75 386 197.64 241.56c-3.51-2-6.36-7.46-6.36-12.14V36c0-4.68 2.85-6.83 6.36-4.8l250.11 144.4c3.51 2 6.35 7.46 6.35 12.14v193.42c0 4.67-2.84 6.84-6.35 4.84Z" fill="#e4e7f2"/><path data-name="Path 346" d="M447.31 386.21 197.2 241.81c-3.51-2-6.36-7.46-6.36-12.14V36.2c0-4.67 2.85-6.82 6.36-4.8l250.11 144.4c3.5 2 6.35 7.46 6.35 12.14v193.47c0 4.68-2.85 6.83-6.35 4.8Z" fill="#d6d8e5"/><path data-name="Path 347" d="M450.22 374.44 194 226.53 194.15 37c0-1.94 1.36-2.73 3-1.76l250.11 144.4a6.72 6.72 0 0 1 3 5.27Z" fill="#fff"/><path data-name="Path 348" d="M450.14 374.45 194 226.54 194.08 37c0-1.94 1.36-2.73 3-1.76l250.11 144.4a6.73 6.73 0 0 1 3 5.27Z" opacity=".5" fill="url(#a)"/><path data-name="Path 349" d="M258.67 498.63 8.56 354.23c-3.51-2-3.07-5.56 1-7.9l167.55-96.74c4-2.33 10.18-2.59 13.68-.56l250.12 144.4c3.5 2 3.06 5.56-1 7.9l-167.56 96.74c-4.05 2.33-10.18 2.59-13.68.56Z" fill="#d6d8e5" opacity=".4"/><path data-name="Path 350" d="M264.13 495.35 14 351c-3.51-2-3.07-5.56 1-7.9l167.55-96.73c4-2.34 10.18-2.6 13.69-.57l250.11 144.4c3.51 2 3.07 5.56-1 7.9l-167.53 96.69c-4.05 2.33-10.18 2.59-13.69.56Z" fill="#b1b4c4"/><path data-name="Path 351" d="M11.65 347.69v-4.72l5.3 2.22Z" fill="#b1b4c4"/><path data-name="Path 352" d="M448.72 393.68v-4.61l-3.92 1.35 2.6 3.82Z" fill="#b1b4c4"/><path data-name="Path 353" d="M264.13 491.38 14 347c-3.51-2-3.07-5.56 1-7.9l167.55-96.74c4-2.34 10.18-2.59 13.69-.56l250.11 144.4c3.51 2 3.07 5.56-1 7.9l-167.53 96.71c-4.05 2.34-10.18 2.6-13.69.57Z" fill="#e4e7f2"/><path data-name="Path 354" d="M264.13 490.77 14 346.37c-3.51-2-3.07-5.57 1-7.9l167.55-96.74c4-2.34 10.18-2.59 13.69-.57l250.11 144.41c3.51 2 3.07 5.56-1 7.9L277.82 490.2c-4.05 2.34-10.18 2.59-13.69.57Z" fill="#d6d8e5"/><path data-name="Path 355" d="m177.91 274.36-11.64-6.72c-1-.55-.83-1.51.26-2.14l11.12-6.42a4.11 4.11 0 0 1 3.7-.15l11.65 6.72c.95.55.83 1.51-.27 2.14l-11.11 6.42a4.13 4.13 0 0 1-3.71.15Z" fill="#2b303f"/><path data-name="Path 356" d="m194.4 283.88-11.65-6.73c-.95-.54-.83-1.5.27-2.14l11.11-6.41a4.13 4.13 0 0 1 3.71-.15l11.64 6.72c1 .55.83 1.51-.26 2.14l-11.12 6.41a4.08 4.08 0 0 1-3.7.16Z" fill="#2b303f"/><path data-name="Path 357" d="m211.07 293.51-11.64-6.73c-1-.55-.83-1.51.26-2.14l11.12-6.41a4.08 4.08 0 0 1 3.7-.16l11.65 6.73c1 .54.83 1.5-.27 2.14l-11.11 6.41a4.17 4.17 0 0 1-3.71.16Z" fill="#2b303f"/><path data-name="Path 358" d="m227.37 302.91-11.65-6.72c-.95-.55-.83-1.51.27-2.14l11.11-6.42a4.13 4.13 0 0 1 3.71-.15l11.65 6.72c.95.55.83 1.51-.27 2.14l-11.11 6.42a4.13 4.13 0 0 1-3.71.15Z" fill="#2b303f"/><path data-name="Path 359" d="m243.86 312.43-11.65-6.72c-1-.55-.83-1.51.27-2.14l11.11-6.42a4.13 4.13 0 0 1 3.71-.15l11.64 6.72c.95.55.83 1.51-.27 2.14l-11.11 6.42a4.11 4.11 0 0 1-3.7.15Z" fill="#2b303f"/><path data-name="Path 360" d="m260.34 322-11.64-6.72c-.95-.55-.84-1.51.26-2.14l11.11-6.42a4.13 4.13 0 0 1 3.71-.15l11.65 6.72c.95.55.83 1.51-.27 2.14l-11.11 6.42a4.13 4.13 0 0 1-3.71.15Z" fill="#2b303f"/><path data-name="Path 361" d="m276.83 331.47-11.65-6.72c-.95-.55-.83-1.51.27-2.14l11.11-6.42a4.13 4.13 0 0 1 3.71-.15l11.64 6.72c.95.55.83 1.51-.26 2.14l-11.12 6.41a4.08 4.08 0 0 1-3.7.16Z" fill="#2b303f"/><path data-name="Path 362" d="m293.31 341-11.64-6.73c-.95-.55-.83-1.5.26-2.14l11.12-6.41a4.08 4.08 0 0 1 3.7-.16l11.65 6.73c1 .55.83 1.5-.27 2.14l-11.13 6.4a4.1 4.1 0 0 1-3.69.17Z" fill="#2b303f"/><path data-name="Path 363" d="m309.8 350.5-11.65-6.72c-.95-.55-.83-1.51.27-2.14l11.11-6.41a4.1 4.1 0 0 1 3.71-.16l11.64 6.73c.95.54.83 1.5-.26 2.14l-11.11 6.41a4.13 4.13 0 0 1-3.71.15Z" fill="#2b303f"/><path data-name="Path 364" d="m326.28 360-11.64-6.72c-.95-.55-.83-1.51.26-2.14l11.1-6.4a4.11 4.11 0 0 1 3.7-.15l11.65 6.72c.95.55.83 1.51-.27 2.14L330 359.87a4.13 4.13 0 0 1-3.72.13Z" fill="#2b303f"/><path data-name="Path 365" d="m342.77 369.54-11.65-6.72c-.95-.55-.83-1.51.27-2.14l11.11-6.42a4.13 4.13 0 0 1 3.71-.15l11.65 6.72c.95.55.83 1.51-.27 2.14l-11.11 6.42a4.13 4.13 0 0 1-3.71.15Z" fill="#2b303f"/><path data-name="Path 366" d="m359.26 379.06-11.65-6.72c-.95-.55-.83-1.51.27-2.14l11.12-6.42a4.13 4.13 0 0 1 3.71-.15l11.64 6.72c1 .55.83 1.51-.27 2.14L363 378.91a4.11 4.11 0 0 1-3.74.15Z" fill="#2b303f"/><path data-name="Path 367" d="m375.74 388.58-11.64-6.73c-1-.55-.84-1.5.26-2.14l11.11-6.41a4.13 4.13 0 0 1 3.71-.16l11.65 6.73c.95.55.83 1.5-.27 2.14l-11.11 6.41a4.1 4.1 0 0 1-3.71.16Z" fill="#2b303f"/><path data-name="Path 368" d="m400.17 402.68-19.59-11.31c-.95-.55-.83-1.51.27-2.14l11.15-6.41a4.1 4.1 0 0 1 3.71-.16L415.25 394c.95.55.83 1.51-.26 2.14l-11.12 6.42a4.11 4.11 0 0 1-3.7.12Z" fill="#2b303f"/><path data-name="Path 369" d="m186.39 297.7-11.65-6.7c-1-.55-.83-1.51.27-2.14l11.11-6.42a4.13 4.13 0 0 1 3.71-.15l11.64 6.71c.95.55.83 1.51-.26 2.14l-11.12 6.42a4.11 4.11 0 0 1-3.7.14Z" fill="#2b303f"/><path data-name="Path 370" d="m202.9 307.24-11.64-6.72c-.95-.55-.83-1.51.26-2.14l11.12-6.38a4.11 4.11 0 0 1 3.7-.15l11.66 6.68c.95.55.83 1.51-.27 2.14l-11.11 6.42a4.13 4.13 0 0 1-3.72.15Z" fill="#2b303f"/><path data-name="Path 371" d="m219.42 316.77-11.65-6.72c-1-.55-.83-1.51.27-2.14l11.11-6.42a4.13 4.13 0 0 1 3.71-.15l11.64 6.72c.95.55.83 1.51-.26 2.14l-11.12 6.42a4.11 4.11 0 0 1-3.7.15Z" fill="#2b303f"/><path data-name="Path 372" d="m235.93 326.31-11.65-6.73c-.95-.54-.83-1.5.27-2.14l11.11-6.44a4.13 4.13 0 0 1 3.71-.16L251 317.6c.95.55.83 1.5-.27 2.14l-11.11 6.41a4.1 4.1 0 0 1-3.69.16Z" fill="#2b303f"/><path data-name="Path 373" d="M252.31 335.77 240.67 329c-.95-.55-.83-1.5.26-2.14l11.12-6.41a4.08 4.08 0 0 1 3.7-.16l11.65 6.73c1 .54.83 1.5-.27 2.14L256 335.61a4.13 4.13 0 0 1-3.69.16Z" fill="#2b303f"/><path data-name="Path 374" d="m268.83 345.3-11.65-6.72c-.95-.55-.83-1.51.27-2.14l11.11-6.44a4.13 4.13 0 0 1 3.71-.15l11.64 6.72c.95.55.83 1.51-.26 2.14l-11.12 6.42a4.11 4.11 0 0 1-3.7.17Z" fill="#2b303f"/><path data-name="Path 375" d="m285.34 354.83-11.65-6.72c-.95-.55-.83-1.51.27-2.14l11.11-6.41a4.1 4.1 0 0 1 3.71-.16l11.65 6.73c.95.54.83 1.5-.27 2.14l-11.11 6.41a4.13 4.13 0 0 1-3.71.15Z" fill="#2b303f"/><path data-name="Path 376" d="m301.85 364.37-11.64-6.72c-.95-.55-.83-1.51.27-2.14l11.11-6.42a4.11 4.11 0 0 1 3.7-.15l11.65 6.72c.95.55.83 1.51-.27 2.14l-11.11 6.42a4.13 4.13 0 0 1-3.71.15Z" fill="#2b303f"/><path data-name="Path 377" d="m318.37 373.9-11.65-6.72c-1-.55-.83-1.51.27-2.14l11.11-6.42a4.13 4.13 0 0 1 3.71-.15l11.64 6.72c.95.55.84 1.51-.26 2.14l-11.11 6.42a4.13 4.13 0 0 1-3.71.15Z" fill="#2b303f"/><path data-name="Path 378" d="m334.88 383.44-11.64-6.73c-.95-.54-.83-1.5.26-2.14l11.12-6.41a4.14 4.14 0 0 1 3.7-.16l11.68 6.73c.95.55.83 1.51-.27 2.14l-11.11 6.41a4.1 4.1 0 0 1-3.74.16Z" fill="#2b303f"/><path data-name="Path 379" d="m351.4 393-11.65-6.72c-.95-.55-.83-1.51.27-2.14l11.11-6.42a4.13 4.13 0 0 1 3.71-.15l11.64 6.72c.95.55.83 1.51-.26 2.14l-11.12 6.42a4.11 4.11 0 0 1-3.7.15Z" fill="#2b303f"/><path data-name="Path 380" d="m367.91 402.51-11.64-6.73c-.95-.55-.84-1.5.26-2.14l11.11-6.41a4.13 4.13 0 0 1 3.71-.16L383 393.8c.95.55.83 1.5-.27 2.14l-11.11 6.41a4.1 4.1 0 0 1-3.71.16Z" fill="#2b303f"/><path data-name="Path 381" d="m169.87 288.17-19.58-11.31c-.95-.55-.83-1.5.26-2.14l11.12-6.41a4.08 4.08 0 0 1 3.7-.16L185 279.46c.95.55.83 1.51-.27 2.14l-11.15 6.4a4.13 4.13 0 0 1-3.71.17Z" fill="#2b303f"/><path data-name="Path 382" d="m399.37 403.29-11.64-6.72a3.8 3.8 0 0 0-3.46 0l-11.74 6.78c-1 .55-1 1.44 0 2l.93.54a.973.973 0 0 1 0 1.84L361 414.89c-1 .56-1 1.45 0 2l7.41 4.28a3.81 3.81 0 0 0 3.45 0l11.62-6.7 2.4-1.39 1.73-1 1.74-1 10-5.77c.97-.58.97-1.47.02-2.02Z" fill="#2b303f"/><path data-name="Path 383" d="m114.06 311.3-11.64-6.72c-1-.55-.83-1.51.26-2.14L113.8 296a4.11 4.11 0 0 1 3.7-.15l11.65 6.72c.95.55.83 1.51-.27 2.14l-11.11 6.42a4.13 4.13 0 0 1-3.71.17Z" fill="#2b303f"/><path data-name="Path 384" d="m130.5 320.79-11.64-6.72c-1-.55-.83-1.51.26-2.14l11.12-6.42a4.11 4.11 0 0 1 3.7-.15l11.65 6.72c.95.55.83 1.51-.27 2.14l-11.11 6.42a4.13 4.13 0 0 1-3.71.15Z" fill="#2b303f"/><path data-name="Path 385" d="m146.94 330.28-11.64-6.72c-1-.55-.84-1.51.26-2.14l11.11-6.42a4.13 4.13 0 0 1 3.71-.15l11.62 6.72c.95.55.83 1.51-.27 2.14l-11.11 6.42a4.13 4.13 0 0 1-3.68.15Z" fill="#2b303f"/><path data-name="Path 386" d="m286.94 411.11-11.65-6.73c-1-.54-.83-1.5.27-2.14l11.11-6.41a4.13 4.13 0 0 1 3.71-.16L302 402.4c1 .55.83 1.5-.27 2.14L290.64 411a4.08 4.08 0 0 1-3.7.11Z" fill="#2b303f"/><path data-name="Path 387" d="m303.37 420.6-11.64-6.72c-1-.55-.83-1.51.26-2.14l11.12-6.42a4.11 4.11 0 0 1 3.7-.15l11.65 6.72c1 .55.83 1.51-.27 2.14l-11.11 6.42a4.13 4.13 0 0 1-3.71.15Z" fill="#2b303f"/><path data-name="Path 388" d="m319.81 430.09-11.64-6.72c-.95-.55-.83-1.51.26-2.14l11.12-6.42a4.11 4.11 0 0 1 3.7-.15l11.65 6.72c1 .55.83 1.51-.27 2.14l-11.11 6.42a4.13 4.13 0 0 1-3.71.15Z" fill="#2b303f"/><path data-name="Path 389" d="m336.25 439.58-11.64-6.72c-.95-.55-.83-1.51.26-2.14L336 424.3a4.11 4.11 0 0 1 3.7-.15l11.65 6.72c1 .55.83 1.51-.27 2.14L340 439.43a4.13 4.13 0 0 1-3.75.15Z" fill="#2b303f"/>
        <path data-name="Path 390" d="m167.61 342.22-15.88-9.17c-.95-.55-.83-1.51.27-2.14l11.11-6.42a4.13 4.13 0 0 1 3.71-.15l15.88 9.17c1 .55.83 1.5-.27 2.14l-11.11 6.41a4.1 4.1 0 0 1-3.71.16Z" fill="#2b303f"/><path data-name="Path 391" d="m270.5 401.62-15.88-9.17c-1-.55-.83-1.51.26-2.14l11.12-6.42a4.11 4.11 0 0 1 3.7-.15l15.88 9.17c.95.55.83 1.5-.26 2.14l-11.12 6.41a4.08 4.08 0 0 1-3.7.16Z" fill="#2b303f"/><path data-name="Path 392" d="M249.82 389.68 172.41 345c-.95-.55-.83-1.51.26-2.14l11.12-6.42a4.11 4.11 0 0 1 3.7-.15L264.91 381c.95.55.83 1.51-.27 2.14l-11.11 6.42a4.13 4.13 0 0 1-3.71.12Z" fill="#2b303f"/><path data-name="Path 393" d="m174.89 309.52-11.64-6.72c-.95-.55-.83-1.51.27-2.14l11.11-6.42a4.11 4.11 0 0 1 3.7-.15l11.67 6.72c1 .55.83 1.51-.27 2.14l-11.11 6.42a4.13 4.13 0 0 1-3.73.15Z" fill="#2b303f"/><path data-name="Path 394" d="m191.36 319-11.64-6.73c-.95-.55-.83-1.5.26-2.14l11.12-6.41a4.11 4.11 0 0 1 3.7-.16l11.65 6.73c1 .55.83 1.5-.27 2.14l-11.11 6.41a4.1 4.1 0 0 1-3.71.16Z" fill="#2b303f"/><path data-name="Path 395" d="m207.83 328.53-11.65-6.72c-1-.55-.83-1.51.27-2.14l11.11-6.42a4.13 4.13 0 0 1 3.71-.15l11.64 6.72c1 .55.84 1.51-.26 2.14l-11.11 6.42a4.13 4.13 0 0 1-3.71.15Z" fill="#2b303f"/><path data-name="Path 396" d="m224.3 338-11.65-6.72c-1-.55-.83-1.51.27-2.14l11.08-6.38a4.13 4.13 0 0 1 3.71-.15l11.64 6.72c1 .55.83 1.51-.26 2.14L228 337.89a4.11 4.11 0 0 1-3.7.11Z" fill="#2b303f"/><path data-name="Path 397" d="m240.76 347.55-11.64-6.72c-1-.55-.83-1.51.26-2.14l11.12-6.42a4.11 4.11 0 0 1 3.7-.15l11.65 6.72c1 .55.83 1.51-.27 2.14l-11.11 6.42a4.13 4.13 0 0 1-3.71.15Z" fill="#2b303f"/><path data-name="Path 398" d="m257.23 357.06-11.64-6.73c-1-.55-.84-1.5.26-2.14l11.15-6.41a4.1 4.1 0 0 1 3.71-.16l11.65 6.73c.95.55.83 1.5-.27 2.14l-11.11 6.41a4.1 4.1 0 0 1-3.75.16Z" fill="#2b303f"/><path data-name="Path 399" d="m273.7 366.56-11.65-6.72c-.95-.55-.83-1.51.27-2.14l11.11-6.42a4.13 4.13 0 0 1 3.71-.15l11.64 6.72c1 .55.83 1.51-.26 2.14l-11.12 6.42a4.11 4.11 0 0 1-3.7.15Z" fill="#2b303f"/><path data-name="Path 400" d="m290.17 376.07-11.65-6.72c-.95-.55-.83-1.51.27-2.14l11.11-6.42a4.13 4.13 0 0 1 3.71-.15l11.64 6.72c.95.55.83 1.51-.27 2.14l-11.11 6.42a4.11 4.11 0 0 1-3.7.15Z" fill="#2b303f"/><path data-name="Path 401" d="M306.63 385.58 295 378.86c-.95-.55-.83-1.51.26-2.14l11.12-6.42a4.11 4.11 0 0 1 3.7-.15l11.65 6.72c.95.55.83 1.51-.27 2.14l-11.11 6.42a4.13 4.13 0 0 1-3.72.15Z" fill="#2b303f"/><path data-name="Path 402" d="m323.1 395.09-11.65-6.73c-.95-.55-.83-1.5.27-2.14l11.11-6.41a4.1 4.1 0 0 1 3.71-.16l11.65 6.73c.95.54.83 1.5-.27 2.14l-11.11 6.41a4.13 4.13 0 0 1-3.71.16Z" fill="#2b303f"/><path data-name="Path 403" d="m339.57 404.59-11.65-6.72c-.95-.55-.83-1.51.27-2.14l11.11-6.42a4.13 4.13 0 0 1 3.71-.15l11.64 6.72c1 .55.83 1.51-.26 2.14l-11.12 6.42a4.11 4.11 0 0 1-3.7.15Z" fill="#2b303f"/><path data-name="Path 404" d="m356 414.1-11.64-6.72c-.95-.55-.83-1.51.27-2.14l11.11-6.42a4.11 4.11 0 0 1 3.7-.15l11.65 6.72c.95.55.83 1.51-.27 2.14L359.74 414a4.13 4.13 0 0 1-3.74.1Z" fill="#2b303f"/><path data-name="Path 405" d="m158.43 300-24.09-13.9c-1-.55-.83-1.51.27-2.14l11.11-6.42a4.13 4.13 0 0 1 3.71-.15l24.08 13.9c1 .55.83 1.51-.26 2.14l-11.12 6.42a4.11 4.11 0 0 1-3.7.15Z" fill="#2b303f"/><path data-name="Path 406" d="m150.74 314-11.64-6.7c-.95-.55-.84-1.5.26-2.14l11.11-6.41a4.1 4.1 0 0 1 3.71-.16l11.65 6.73c.95.54.83 1.5-.27 2.14l-11.11 6.41a4.13 4.13 0 0 1-3.71.13Z" fill="#2b303f"/><path data-name="Path 407" d="m167.21 323.53-11.65-6.72c-.95-.55-.83-1.51.27-2.14l11.11-6.42a4.13 4.13 0 0 1 3.71-.15l11.64 6.72c1 .55.83 1.51-.26 2.14l-11.12 6.42a4.11 4.11 0 0 1-3.7.15Z" fill="#2b303f"/><path data-name="Path 408" d="M183.67 333 172 326.31c-1-.55-.83-1.5.27-2.14l11.11-6.41a4.13 4.13 0 0 1 3.71-.16l11.65 6.73c1 .55.83 1.5-.27 2.14l-11.11 6.41a4.1 4.1 0 0 1-3.69.12Z" fill="#2b303f"/><path data-name="Path 409" d="m200.13 342.54-11.64-6.72c-1-.55-.83-1.51.27-2.14l11.11-6.42a4.11 4.11 0 0 1 3.7-.15l11.65 6.72c.95.55.83 1.51-.27 2.14l-11.11 6.42a4.13 4.13 0 0 1-3.71.15Z" fill="#2b303f"/><path data-name="Path 410" d="m216.6 352.05-11.6-6.72c-.95-.55-.83-1.51.27-2.14l11.11-6.42a4.13 4.13 0 0 1 3.71-.15l11.64 6.72c.95.55.84 1.51-.26 2.14l-11.11 6.41a4.1 4.1 0 0 1-3.76.16Z" fill="#2b303f"/><path data-name="Path 411" d="m233.06 361.55-11.64-6.72c-.95-.55-.83-1.51.26-2.14l11.12-6.42a4.11 4.11 0 0 1 3.7-.15l11.65 6.72c.95.55.83 1.51-.27 2.14l-11.11 6.42a4.13 4.13 0 0 1-3.71.15Z" fill="#2b303f"/><path data-name="Path 412" d="m249.53 371.06-11.65-6.72c-.95-.55-.83-1.51.27-2.14l11.11-6.42a4.13 4.13 0 0 1 3.71-.15l11.64 6.72c.95.55.83 1.51-.26 2.14l-11.11 6.42a4.13 4.13 0 0 1-3.71.15Z" fill="#2b303f"/><path data-name="Path 413" d="m266 380.57-11.64-6.73c-.95-.55-.83-1.5.26-2.14l11.12-6.41a4.08 4.08 0 0 1 3.7-.16l11.65 6.73c.95.54.83 1.5-.27 2.14l-11.11 6.41a4.13 4.13 0 0 1-3.71.16Z" fill="#2b303f"/><path data-name="Path 414" d="m282.46 390.07-11.65-6.72c-.95-.55-.83-1.51.27-2.14l11.11-6.42a4.13 4.13 0 0 1 3.71-.15l11.64 6.72c.95.55.83 1.51-.26 2.14l-11.12 6.42a4.11 4.11 0 0 1-3.7.15Z" fill="#2b303f"/><path data-name="Path 415" d="m298.92 399.58-11.64-6.73c-.95-.54-.83-1.5.26-2.14l11.12-6.41a4.11 4.11 0 0 1 3.7-.16l11.64 6.73c.95.55.83 1.5-.27 2.14l-11.11 6.41a4.1 4.1 0 0 1-3.7.16Z" fill="#2b303f"/><path data-name="Path 416" d="m315.39 409.08-11.65-6.72c-.95-.55-.83-1.51.27-2.14l11.11-6.42a4.13 4.13 0 0 1 3.71-.15l11.64 6.72c.95.55.83 1.51-.26 2.14l-11.12 6.42a4.11 4.11 0 0 1-3.7.15Z" fill="#2b303f"/><path data-name="Path 417" d="m352.23 430.36-32-18.49c-.95-.55-.84-1.51.26-2.14l11.11-6.42a4.13 4.13 0 0 1 3.71-.15l32 18.49c.95.54.83 1.5-.27 2.14l-11.11 6.41a4.13 4.13 0 0 1-3.7.16Z" fill="#2b303f"/><path data-name="Path 418" d="m134.28 304.52-15.88-9.17c-1-.55-.83-1.51.26-2.14l11.12-6.41a4.08 4.08 0 0 1 3.7-.16l15.88 9.17c.95.55.83 1.51-.26 2.14l-11.1 6.42a4.11 4.11 0 0 1-3.72.15Z" fill="#2b303f"/><path data-name="Path 419" d="m416.71 393.13-233.84-135c-1-.54-.83-1.5.27-2.14l5.56-3.2a4.11 4.11 0 0 1 3.7-.16l233.84 135c.95.55.83 1.5-.27 2.14l-5.55 3.23a4.13 4.13 0 0 1-3.71.13Z" fill="#2b303f"/><path data-name="Path 420" d="M271.85 408.48a3.53 3.53 0 0 1-1.62 1.68l-64.34 37.15a7.93 7.93 0 0 1-7.13.29l-110-63.49a2.46 2.46 0 0 1-1.08-1.11c-.4-1 .16-2.11 1.62-2.95l64.35-37.16a7.93 7.93 0 0 1 7.13-.29l110 63.49a1.94 1.94 0 0 1 1.07 2.39Z" fill="#b1b4c4"/><path data-name="Path 421" d="M271.85 408.48a3.53 3.53 0 0 1-1.62 1.68l-64.34 37.15a7.93 7.93 0 0 1-7.13.29l-110-63.49a2.46 2.46 0 0 1-1.08-1.11 3.61 3.61 0 0 1 1.62-1.67l64.35-37.15a7.94 7.94 0 0 1 7.13-.3l110 63.5a2.41 2.41 0 0 1 1.07 1.1Z" fill="#c3c6d1"/><path data-name="Path 422" d="m434.51 382.89-233.84-135a4.12 4.12 0 0 1-1.67-3.29v-2.75c0-1.27.77-1.85 1.72-1.3l233.84 135a4.1 4.1 0 0 1 1.72 3.28v2.75c-.05 1.28-.82 1.86-1.77 1.31Z" fill="#2b303f"/><path data-name="Path 423" d="m236 234.56-23.1-13.31c-2.89-1.67-5.24-6.16-5.24-10v-24.77c0-3.86 2.35-5.63 5.24-4l23.1 13.35c2.9 1.67 5.24 6.16 5.24 10v24.77c-.04 3.86-2.38 5.63-5.24 3.96Z" fill="#e9eaf2"/><path data-name="Path 424" d="m235.91 177.83-23.06-13.31c-2.89-1.67-5.24-8.5-5.24-11.84v-28.92c0-3.86 2.35-5.63 5.24-4l23.06 13.31c2.9 1.67 5.24 6.16 5.24 10v28.92c0 3.4-2.34 7.51-5.24 5.84Z" fill="#e9eaf2"/><path data-name="Path 425" d="M224.51 158.51c-4.69-2.71-8.51-9.33-8.51-14.75s3.82-7.63 8.51-4.92 8.52 9.33 8.52 14.75-3.82 7.63-8.52 4.92Zm0-17.15c-3.49-2-6.33-.37-6.33 3.66a14 14 0 0 0 6.33 11c3.5 2 6.34.38 6.34-3.65a14 14 0 0 0-6.34-11.01Z" fill="#a479bf"/><path data-name="Path 426" d="m226.85 154.5-3.86-6.14v-5.11l2.18 1.26v3.97l3.12 4.95Z" fill="#864daa"/><path data-name="Path 427" d="m235.88 116.66-23.06-13.31c-2.89-1.68-5.24-9.2-5.24-12.55V64.18c0-3.34 2.35-4.7 5.24-3l23.06 13.32a11.56 11.56 0 0 1 5.24 9.07v26.63c0 3.31-2.34 8.13-5.24 6.46Z" fill="#e9eaf2"/><path data-name="Path 428" d="M224.35 84.75c-1.39-.8-2.51-.15-2.51 1.46a5.54 5.54 0 0 0 2.51 4.35c1.39.8 2.52.15 2.52-1.45a5.59 5.59 0 0 0-2.52-4.36Zm6.71 1-2-1.16a1.64 1.64 0 0 1-.66-.93l-.52-2.11a1.7 1.7 0 0 0-.67-.93l-5.7-3.29c-.28-.16-.57-.09-.66.17l-.52 1.5a.43.43 0 0 1-.66.17l-2-1.16c-.92-.54-1.67-.1-1.67 1v8.72a3.71 3.71 0 0 0 1.67 2.9l13.42 7.75c.92.53 1.68.1 1.68-1v-8.75a3.73 3.73 0 0 0-1.71-2.91Zm-6.71 6.78a9.29 9.29 0 0 1-4.19-7.26c0-2.68 1.88-3.76 4.19-2.42a9.24 9.24 0 0 1 4.19 7.26c0 2.64-1.87 3.73-4.19 2.39Zm6.12-3.83a1.28 1.28 0 0 1-.58-1c0-.38.26-.53.58-.34a1.28 1.28 0 0 1 .59 1c0 .35-.26.5-.59.31Z" fill="#a479bf"/><path data-name="Path 429" d="M231.63 210.35c0 4.51-7.07 10.37-7.07 10.37s-7.08-14-7.08-18.54 3.17-6.34 7.08-4.09a15.65 15.65 0 0 1 7.07 12.26Z" fill="#a479bf"/><ellipse data-name="Ellipse 40" cx="3.78" cy="6.54" rx="3.78" ry="6.54" transform="rotate(-30 486.29 -305.733)" fill="#e9eaf2"/><path data-name="Path 430" d="m399.13 271-139.61-80.61c-2.36-1.35-4.26-5-4.26-8.13V88.43c0-3.13 1.9-4.57 4.26-3.21l139.61 80.6c2.35 1.36 4.25 5 4.25 8.14v93.82c0 3.14-1.9 4.58-4.25 3.22Z" fill="#e9eaf2"/><path data-name="Path 431" d="m383 202.79-108.21-62.47c-2.62-1.52-4.75-5.58-4.75-9.07v-7.07c0-3.5 2.13-5.1 4.75-3.59L383 183.06c2.62 1.51 4.74 5.57 4.74 9.07v7.07c0 3.5-2.12 5.1-4.74 3.59Z" fill="#fff"/><path data-name="Path 432" d="m324.15 200.6-49.36-28.5c-2.62-1.51-4.75-5.57-4.75-9.07V156c0-3.5 2.13-5.1 4.75-3.59l49.36 28.5c2.62 1.51 4.74 5.57 4.74 9.07V197c0 3.5-2.12 5.11-4.74 3.6Z" fill="#a479bf"/><path data-name="Path 433" d="M427.86 291.64s-52.63 11.6-95.18-35.66-77.26-41.2-77.26-41.2v29.5l172.44 99.55Z" fill="url(#b)"/><path data-name="Path 434" d="M427.86 291.64s-52.63 11.6-95.18-35.66-77.26-41.2-77.26-41.2" fill="none" stroke="#cccedd" stroke-miterlimit="10" stroke-width="1.06"/></g><path data-name="&lt;Контур&gt;" d="M255.15 44.397a38.54 38.54 0 0 1-5.57 7.6c-.6.7-5.23-1.07-4.26-1.57s4-4.72 5.52-7.54a96.186 96.186 0 0 0 3.24-10.29c.95-3.45 1.77-8.51 2.47-10.89a4.65 4.65 0 0 1 3.54-3.61c1.67-.39 2.75.07 2.44 2.09-.57 3.52-3.3 17.26-7.38 24.21Z" fill="#ffcea9"/>
        <path data-name="Path 435" d="M257.8 98.247c-1.43 1.17-3.55.1-3.66.21a65.733 65.733 0 0 1-5.29 4.41c-.9.7-2.29 1.64-2 3 .45 2.41 4.32 1.67 5.78.93s2.66-2 4-2.82c1-.62 2-.93 2.11-2.18.09-.75-.68-3.58-.94-3.55Z" fill="#006b35"/><path data-name="Path 436" d="M258.72 101.297c-.19 1.19-1.15 1.52-2.13 2.13-1.4.87-2.64 2.13-4.1 2.87s-4.71 1.36-5.66-.37c.51 2.33 4.32 1.6 5.76.87s2.66-2 4-2.82c1-.62 2-.93 2.11-2.18a3.079 3.079 0 0 0 .02-.5Z" fill="#003319"/><path data-name="Path 437" d="M243.24 89.857c-1.43 1.17-3.94-.1-4.05 0a53 53 0 0 1-4.73 4.27c-.9.71-2.29 1.65-2 3 .45 2.42 4.32 1.68 5.79.94s2.65-2 4-2.83c1-.61 2-.93 2.11-2.17.08-.75-.86-3.24-1.12-3.21Z" fill="#006b35"/><path data-name="Path 438" d="M244.31 92.737c-.19 1.19-1.15 1.52-2.13 2.13-1.4.87-2.64 2.13-4.1 2.87s-4.72 1.36-5.66-.37c.51 2.33 4.31 1.6 5.76.87s2.65-2 4-2.83c1-.61 2-.92 2.11-2.17a3.079 3.079 0 0 0 .02-.5Z" fill="#003319"/><path data-name="&lt;Контур&gt;" d="M276.96 52.237c1.59 9.94-2.82 13.65-8.56 15.76-4.12 1.52-10 3.86-10 3.86s.08 2.18.12 7.07c0 4.31-.52 20-.52 20a4.81 4.81 0 0 1-4.4 0s-2.31-12.05-2.8-17.49c-.67-7.37-1.8-12.2-1.42-13.79.33-1.4 8.39-5.36 10.95-7.48l-16.89 5.66a29.83 29.83 0 0 1 .49 5.55c-.15 5.85-.48 18.52-.48 18.52s-2.31 1.67-4.29 0c0 0-4.25-25.07-3.73-28.39.49-3.15 15.37-9.59 18-11.81a4.2 4.2 0 0 1 3.3-.89Z" fill="#46c25f"/><g data-name="&lt;Группа&gt;"><path data-name="&lt;Контур&gt;" d="m236.5 56.377 11.35-6.55a.63.63 0 0 1 .65 0l19.9 11.49-11.67 6.74Z" fill="#f4f4f4"/><path data-name="Path 439" d="m257.26 65.647.87.5c.07 0 .06.11 0 .16l-.83.48a.32.32 0 0 1-.27 0l-.87-.5c-.07 0-.06-.11 0-.16l.83-.48a.32.32 0 0 1 .27 0Z" fill="#3a2c6d"/><path data-name="Path 440" d="m256.04 64.997.86.49c.07 0 .06.12 0 .16l-.82.48a.31.31 0 0 1-.28 0l-.86-.5c-.07 0-.06-.11 0-.16l.82-.47a.28.28 0 0 1 .28 0Z" fill="#3a2c6d"/><path data-name="Path 441" d="m254.8 64.227.86.5c.07 0 .07.11 0 .16l-.82.47a.31.31 0 0 1-.28 0l-.86-.5c-.07 0-.06-.11 0-.16l.82-.48a.31.31 0 0 1 .28.01Z" fill="#3a2c6d"/><path data-name="Path 442" d="m253.59 63.527.86.5c.07 0 .07.11 0 .16l-.82.48a.34.34 0 0 1-.28 0l-.86-.5c-.07 0-.06-.11 0-.16l.82-.48a.34.34 0 0 1 .28 0Z" fill="#3a2c6d"/><path data-name="Path 443" d="m252.36 62.817.87.5c.07 0 .06.12 0 .16l-.83.48a.29.29 0 0 1-.27 0l-.87-.5c-.07 0-.06-.11 0-.16l.83-.47a.29.29 0 0 1 .27-.01Z" fill="#3a2c6d"/><path data-name="Path 444" d="m251.14 62.117.87.5c.07 0 .06.11 0 .16l-.83.47a.29.29 0 0 1-.27 0l-.87-.5c-.07 0-.06-.11 0-.15l.83-.48a.29.29 0 0 1 .27 0Z" fill="#3a2c6d"/><path data-name="Path 445" d="m249.96 61.407.86.5c.07 0 .06.11 0 .16l-.82.48a.34.34 0 0 1-.28 0l-.86-.5c-.07 0-.07-.11 0-.16l.82-.48a.34.34 0 0 1 .28 0Z" fill="#3a2c6d"/><path data-name="Path 446" d="m248.69 60.697.87.5c.07 0 .06.12 0 .16l-.83.48a.29.29 0 0 1-.27 0l-.87-.5c-.07 0-.06-.11 0-.16l.83-.47a.29.29 0 0 1 .27-.01Z" fill="#3a2c6d"/><path data-name="Path 447" d="m247.47 59.997.86.5c.07 0 .06.11 0 .16l-.82.47a.31.31 0 0 1-.28 0l-.86-.5c-.07 0-.06-.11 0-.15l.82-.48a.31.31 0 0 1 .28 0Z" fill="#3a2c6d"/><path data-name="Path 448" d="m246.24 59.287.87.5c.07 0 .06.11 0 .16l-.83.48a.32.32 0 0 1-.27 0l-.87-.5c-.07 0-.06-.11 0-.16l.83-.48a.29.29 0 0 1 .27 0Z" fill="#3a2c6d"/><path data-name="Path 449" d="m245.02 58.577.86.5c.07 0 .07.11 0 .16l-.82.48a.31.31 0 0 1-.28 0l-.86-.5c-.07 0-.06-.11 0-.16l.82-.47a.31.31 0 0 1 .28-.01Z" fill="#3a2c6d"/><path data-name="Path 450" d="m243.8 57.877.86.5c.07 0 .06.11 0 .16l-.83.47a.29.29 0 0 1-.27 0l-.87-.5c-.07 0-.06-.11 0-.16l.83-.47a.31.31 0 0 1 .28 0Z" fill="#3a2c6d"/><path data-name="Path 451" d="m242.57 57.167.87.5c.07 0 .06.11 0 .16l-.83.47a.29.29 0 0 1-.27 0l-.87-.5c-.07 0-.06-.12 0-.16l.83-.48a.29.29 0 0 1 .27.01Z" fill="#3a2c6d"/><path data-name="Path 452" d="m240.76 56.117 1.45.84c.07 0 .06.11 0 .16l-.82.48a.34.34 0 0 1-.28 0l-1.45-.84c-.07 0-.07-.11 0-.16l.82-.48a.34.34 0 0 1 .28 0Z" fill="#3a2c6d"/><path data-name="Path 453" d="m256.63 63.917.87.5c.07 0 .06.11 0 .16l-.83.47a.26.26 0 0 1-.27 0l-.87-.49c-.07 0-.06-.12 0-.16l.83-.48a.29.29 0 0 1 .27 0Z" fill="#3a2c6d"/><path data-name="Path 454" d="m255.41 63.207.86.5c.07 0 .06.11 0 .16l-.82.48a.34.34 0 0 1-.28 0l-.86-.5c-.07 0-.07-.11 0-.16l.82-.48a.31.31 0 0 1 .28 0Z" fill="#3a2c6d"/><path data-name="Path 455" d="m254.18 62.497.86.5c.08 0 .07.11 0 .16l-.82.48a.34.34 0 0 1-.28 0l-.86-.5c-.07 0-.06-.11 0-.16l.82-.48a.34.34 0 0 1 .28 0Z" fill="#3a2c6d"/><path data-name="Path 456" d="m252.96 61.787.87.5c.07 0 .06.12 0 .16l-.83.48a.29.29 0 0 1-.27 0l-.87-.5c-.07 0-.06-.11 0-.16l.83-.47a.29.29 0 0 1 .27-.01Z" fill="#3a2c6d"/><path data-name="Path 457" d="m251.74 61.087.86.5c.07 0 .06.11 0 .16l-.82.48a.34.34 0 0 1-.28 0l-.86-.5c-.07 0-.07-.11 0-.16l.82-.48a.34.34 0 0 1 .28 0Z" fill="#3a2c6d"/><path data-name="Path 458" d="m250.51 60.377.87.5c.07 0 .06.12 0 .16l-.83.48a.29.29 0 0 1-.27 0l-.87-.5c-.07 0-.06-.11 0-.16l.83-.47a.29.29 0 0 1 .27-.01Z" fill="#3a2c6d"/><path data-name="Path 459" d="m249.28 59.677.87.5c.07 0 .06.11 0 .15l-.83.48a.29.29 0 0 1-.27 0l-.87-.5c-.07 0-.06-.11 0-.16l.83-.47a.29.29 0 0 1 .27 0Z" fill="#3a2c6d"/><path data-name="Path 460" d="m248.06 58.997.86.5c.07 0 .06.11 0 .16l-.82.47a.31.31 0 0 1-.28 0l-.86-.5c-.07 0-.06-.11 0-.15l.82-.48a.31.31 0 0 1 .28 0Z" fill="#3a2c6d"/><path data-name="Path 461" d="m246.83 58.257.87.5c.07 0 .06.11 0 .16l-.83.47a.29.29 0 0 1-.27 0l-.87-.5c-.07 0-.06-.12 0-.16l.83-.48a.29.29 0 0 1 .27.01Z" fill="#3a2c6d"/><path data-name="Path 462" d="m245.61 57.547.86.5c.07 0 .06.11 0 .16l-.83.48a.32.32 0 0 1-.27 0l-.87-.5c-.07 0-.06-.11 0-.16l.83-.48a.34.34 0 0 1 .28 0Z" fill="#3a2c6d"/><path data-name="Path 463" d="m244.38 56.837.86.5c.07 0 .07.11 0 .16l-.82.48a.31.31 0 0 1-.28 0l-.86-.5c-.07 0-.06-.11 0-.16l.82-.48a.34.34 0 0 1 .28 0Z" fill="#3a2c6d"/><path data-name="Path 464" d="m243.15 56.137.87.49c.07 0 .06.12 0 .16l-.83.48a.29.29 0 0 1-.27 0l-.87-.5c-.07 0-.06-.11 0-.16l.83-.47a.26.26 0 0 1 .27 0Z" fill="#3a2c6d"/><path data-name="Path 465" d="m257.86 64.627 1.45.84c.07 0 .07.11 0 .16l-.82.47a.31.31 0 0 1-.28 0l-1.45-.84c-.07 0-.06-.11 0-.16l.82-.47a.31.31 0 0 1 .28 0Z" fill="#3a2c6d"/><path data-name="Path 466" d="m240.82 56.077.86.5a.3.3 0 0 0 .26 0l.87-.51a.08.08 0 0 0 0-.15h-.07c-.06 0-.06-.09 0-.13l.92-.53c.08 0 .08-.11 0-.15l-.55-.32a.3.3 0 0 0-.26 0l-.86.5-.18.1-.13.08-.13.07-.74.43a.08.08 0 0 0 .01.11Z" fill="#3a2c6d"/><path data-name="Path 467" d="m261.96 62.907.87.5c.07 0 .06.11 0 .16l-.83.47a.26.26 0 0 1-.27 0l-.87-.49a.09.09 0 0 1 0-.16l.83-.48a.29.29 0 0 1 .27 0Z" fill="#3a2c6d"/><path data-name="Path 468" d="m260.78 62.197.87.5c.07 0 .06.12 0 .16l-.83.48a.29.29 0 0 1-.27 0l-.87-.5c-.07 0-.06-.11 0-.16l.83-.47a.29.29 0 0 1 .27-.01Z" fill="#3a2c6d"/><path data-name="Path 469" d="m259.56 61.497.87.5c.07 0 .06.11 0 .16l-.83.47a.29.29 0 0 1-.27 0l-.87-.5c-.07 0-.06-.12 0-.16l.83-.48a.29.29 0 0 1 .27.01Z" fill="#3a2c6d"/><path data-name="Path 470" d="m249.17 55.497.86.5c.07 0 .06.11 0 .16l-.82.47a.31.31 0 0 1-.28 0l-.86-.5c-.08 0-.07-.11 0-.16l.82-.47a.31.31 0 0 1 .28 0Z" fill="#3a2c6d"/><path data-name="Path 471" d="m247.96 54.787.87.5c.07 0 .06.11 0 .16l-.83.48a.32.32 0 0 1-.27 0l-.87-.5c-.07 0-.06-.11 0-.16l.83-.48a.32.32 0 0 1 .27 0Z" fill="#3a2c6d"/><path data-name="Path 472" d="m246.72 54.087.87.5c.07 0 .06.11 0 .16l-.83.47a.29.29 0 0 1-.27 0l-.87-.5c-.07 0-.06-.11 0-.15l.83-.48a.29.29 0 0 1 .27 0Z" fill="#3a2c6d"/><path data-name="Path 473" d="m245.5 53.377.87.5c.07 0 .06.11 0 .16l-.83.48a.32.32 0 0 1-.27 0l-.87-.5c-.07 0-.06-.11 0-.16l.83-.48a.32.32 0 0 1 .27 0Z" fill="#3a2c6d"/><path data-name="Path 474" d="m258.03 60.607 1.18.68c.07 0 .06.12 0 .16l-.83.48a.29.29 0 0 1-.27 0l-1.15-.67c-.07 0-.07-.11 0-.16l.82-.48a.34.34 0 0 1 .25-.01Z" fill="#3a2c6d"/><path data-name="Path 475" d="m250.39 56.197 1.18.68c.07 0 .06.11 0 .16l-.83.48a.32.32 0 0 1-.27 0l-1.18-.68c-.07 0-.07-.11 0-.16l.82-.48a.34.34 0 0 1 .28 0Z" fill="#3a2c6d"/><path data-name="Path 476" d="m251.96 57.087 5.75 3.32c.07 0 .06.11 0 .16l-.82.47a.31.31 0 0 1-.28 0l-5.75-3.32c-.07 0-.06-.11 0-.15l.83-.48a.29.29 0 0 1 .27 0Z" fill="#3a2c6d"/><path data-name="Path 477" d="m257.49 62.997.86.5c.07 0 .06.11 0 .16l-.82.48a.34.34 0 0 1-.28 0l-.86-.5c-.07 0-.07-.11 0-.16l.82-.48a.34.34 0 0 1 .28 0Z" fill="#3a2c6d"/><path data-name="Path 478" d="m256.26 62.327.87.5c.07 0 .06.12 0 .16l-.83.48a.29.29 0 0 1-.27 0l-.87-.5c-.07 0-.06-.11 0-.16l.83-.47a.29.29 0 0 1 .27-.01Z" fill="#3a2c6d"/><path data-name="Path 479" d="m255.04 61.627.87.5c.07 0 .06.11 0 .16l-.83.47a.31.31 0 0 1-.28 0l-.86-.5a.09.09 0 0 1 0-.16l.83-.48a.29.29 0 0 1 .27.01Z" fill="#3a2c6d"/><path data-name="Path 480" d="m253.82 60.917.86.5c.07 0 .06.11 0 .16l-.82.48a.34.34 0 0 1-.28 0l-.86-.5c-.07 0-.06-.11 0-.16l.82-.48a.34.34 0 0 1 .28 0Z" fill="#3a2c6d"/><path data-name="Path 481" d="m252.59 60.217.87.5c.07 0 .06.11 0 .16l-.83.47a.29.29 0 0 1-.27 0l-.87-.5c-.07 0-.06-.11 0-.16l.83-.47a.29.29 0 0 1 .27 0Z" fill="#3a2c6d"/><path data-name="Path 482" d="m251.37 59.507.87.5c.07 0 .06.11 0 .16l-.83.48a.32.32 0 0 1-.27 0l-.87-.5c-.07 0-.06-.11 0-.16l.83-.48a.32.32 0 0 1 .27 0Z" fill="#3a2c6d"/><path data-name="Path 483" d="m250.15 58.797.86.5c.07 0 .07.12 0 .16l-.82.48a.31.31 0 0 1-.28 0l-.86-.5c-.07 0-.06-.11 0-.16l.82-.47a.31.31 0 0 1 .28-.01Z" fill="#3a2c6d"/><path data-name="Path 484" d="m248.96 58.097.86.5c.07 0 .06.11 0 .16l-.82.47a.28.28 0 0 1-.28 0l-.86-.49c-.07 0-.07-.12 0-.16l.82-.48a.31.31 0 0 1 .28 0Z" fill="#3a2c6d"/><path data-name="Path 485" d="m247.7 57.387.87.5c.07 0 .06.11 0 .16l-.83.48a.32.32 0 0 1-.27 0l-.87-.5c-.07 0-.06-.11 0-.16l.83-.48a.32.32 0 0 1 .27 0Z" fill="#3a2c6d"/><path data-name="Path 486" d="m246.48 56.687.86.5c.08 0 .07.11 0 .15l-.83.48a.31.31 0 0 1-.28 0l-.86-.5c-.07 0-.06-.11 0-.16l.82-.47a.31.31 0 0 1 .29 0Z" fill="#3a2c6d"/><path data-name="Path 487" d="m245.26 55.997.86.5c.07 0 .06.11 0 .16l-.82.48a.34.34 0 0 1-.28 0l-.86-.5c-.07 0-.06-.11 0-.16l.8-.48a.31.31 0 0 1 .3 0Z" fill="#3a2c6d"/>
        <path data-name="Path 488" d="m244.03 55.267.87.5c.07 0 .06.12 0 .16l-.83.48a.29.29 0 0 1-.27 0l-.87-.5c-.07 0-.06-.11 0-.16l.83-.47a.29.29 0 0 1 .27-.01Z" fill="#3a2c6d"/><path data-name="Path 489" d="m258.71 63.747 1.79 1c.07 0 .06.11 0 .16l-.83.48a.32.32 0 0 1-.27 0l-1.79-1c-.07 0-.06-.11 0-.16l.82-.47a.31.31 0 0 1 .28-.01Z" fill="#3a2c6d"/><path data-name="Path 490" d="m259.28 62.707.86.5c.08 0 .07.11 0 .15l-.82.48a.31.31 0 0 1-.28 0l-.86-.5c-.07 0-.06-.11 0-.16l.82-.47a.31.31 0 0 1 .28 0Z" fill="#3a2c6d"/><path data-name="Path 491" d="m258.06 61.997.86.5c.07 0 .06.11 0 .16l-.82.48a.34.34 0 0 1-.28 0l-.86-.5c-.07 0-.06-.11 0-.16l.82-.48a.31.31 0 0 1 .28 0Z" fill="#3a2c6d"/><path data-name="Path 492" d="m256.83 61.287.87.5c.07 0 .06.12 0 .16l-.83.48a.29.29 0 0 1-.27 0l-.87-.5c-.07 0-.06-.11 0-.16l.83-.47a.29.29 0 0 1 .27-.01Z" fill="#3a2c6d"/><path data-name="Path 493" d="m255.61 60.587.87.5c.07 0 .06.11 0 .16l-.83.47a.26.26 0 0 1-.27 0l-.87-.49a.09.09 0 0 1 0-.16l.83-.48a.29.29 0 0 1 .27 0Z" fill="#3a2c6d"/><path data-name="Path 494" d="m254.39 59.877.86.5c.07 0 .07.11 0 .16l-.82.48a.34.34 0 0 1-.28 0l-.86-.5c-.07 0-.06-.11 0-.16l.82-.48a.34.34 0 0 1 .28 0Z" fill="#3a2c6d"/><path data-name="Path 495" d="m253.17 59.177.86.5c.07 0 .06.11 0 .15l-.82.48a.31.31 0 0 1-.28 0l-.86-.5c-.07 0-.07-.11 0-.16l.82-.47a.31.31 0 0 1 .28 0Z" fill="#3a2c6d"/><path data-name="Path 496" d="m251.96 58.467.87.5c.07 0 .06.11 0 .16l-.83.48a.32.32 0 0 1-.27 0l-.87-.5c-.07 0-.06-.11 0-.16l.83-.48a.32.32 0 0 1 .27 0Z" fill="#3a2c6d"/><path data-name="Path 497" d="m250.72 57.757.87.5c.07 0 .06.12 0 .16l-.83.48a.29.29 0 0 1-.27 0l-.87-.5c-.07 0-.06-.11 0-.16l.83-.47a.29.29 0 0 1 .27-.01Z" fill="#3a2c6d"/><path data-name="Path 498" d="m249.5 57.057.86.5c.07 0 .06.11 0 .16l-.82.47a.31.31 0 0 1-.28 0l-.86-.5c-.07 0-.06-.12 0-.16l.82-.48a.31.31 0 0 1 .28.01Z" fill="#3a2c6d"/><path data-name="Path 499" d="m248.28 56.347.86.5c.07 0 .06.11 0 .16l-.82.48a.34.34 0 0 1-.28 0l-.86-.5c-.08 0-.07-.11 0-.16l.82-.48a.34.34 0 0 1 .28 0Z" fill="#3a2c6d"/><path data-name="Path 500" d="m247.05 55.647.87.5c.07 0 .06.11 0 .16l-.83.47a.29.29 0 0 1-.27 0l-.87-.5c-.07 0-.06-.11 0-.15l.83-.48a.29.29 0 0 1 .27 0Z" fill="#3a2c6d"/><path data-name="Path 501" d="m244.32 54.067 2.38 1.37c.07 0 .06.11 0 .16l-.83.48a.34.34 0 0 1-.28 0l-2.37-1.38c-.07 0-.07-.11 0-.15l.82-.48a.31.31 0 0 1 .28 0Z" fill="#3a2c6d"/><path data-name="Path 502" d="m260.5 63.407 1.18.68c.07 0 .06.12 0 .16l-.82.48a.31.31 0 0 1-.28 0l-1.18-.68c-.07 0-.06-.11 0-.16l.83-.48a.32.32 0 0 1 .27 0Z" fill="#3a2c6d"/><path data-name="Path 503" d="m239.53 56.827 17.36 10c.07 0 .07.11 0 .16l-.41.23a.29.29 0 0 1-.27 0l-17.37-10c-.07 0-.06-.11 0-.16l.41-.24a.34.34 0 0 1 .28.01Z" fill="#3a2c6d"/><path data-name="&lt;Контур&gt;" d="m259.85 57.277-.12.06-3 1.74-5.33-3.08-.11-.07 3.11-1.79Z" fill="#bfbfbf"/><path data-name="&lt;Контур&gt;" d="m259.73 57.337-3 1.74-5.33-3.08 3-1.73ZM268.4 61.317v.27a1.09 1.09 0 0 1-.54.95l-10.58 6.1a1.07 1.07 0 0 1-1.09 0l-19.14-11a1.1 1.1 0 0 1-.55-1v-.27l20.23 11.68Z" fill="#e5e5e5"/><path data-name="&lt;Контур&gt;" d="M256.43 68.217a1.3 1.3 0 0 1-1.12-.08l-19-11a1.29 1.29 0 0 1-.63-.91l-2.09-12.44a1.489 1.489 0 0 1 0-.21 1.27 1.27 0 0 1 .39-.92l19.8 11.43a1 1 0 0 1 .46.67Z" fill="#f4f4f4"/><path data-name="&lt;Контур&gt;" d="m256.73 68.057-.13.08-.17.08-2.26-13.46a1 1 0 0 0-.46-.67l-19.75-11.43a.86.86 0 0 1 .26-.2l19.84 11.45a1 1 0 0 1 .47.67Z" fill="#e5e5e5"/></g><path data-name="&lt;Контур&gt;" d="M271.12 14.827s-.25 4.73-.14 5.15 2.17 1.81 2.77 2.31-3.27 4.32-5.15 5.18-7.86-1.41-8-4.35 1-5.39 1.94-5.52 8.58-2.77 8.58-2.77Z" fill="#ffcea9"/><path data-name="&lt;Контур&gt;" d="M271.64 20.797s-3.43 5.12-8.22 5.6c-1.51-1.49-1.65-6.79.44-8.48 0 0-1.92-1.56-3.24-1.25a6.75 6.75 0 0 0-3 3.77 30.8 30.8 0 0 0-1.69 11c.08 5 0 17.71 0 17.71a10.81 10.81 0 0 0 5.05 7.27 15.59 15.59 0 0 0 11.41 1.58c2.43-.57 3.33-1.92 4.17-3.69-.22-3.51-1.61-10.76-1-15.19s1.52-7.73 1.76-11.3-.47-3.51-2.27-4.79a28.111 28.111 0 0 0-3.41-2.23Z" fill="#f4f4f4"/><path data-name="&lt;Контур&gt;" d="M266.14 61.587a23 23 0 0 1 2.69-1.54 5.71 5.71 0 0 0 2.3-1.4c.84-.82 2.22-3.94 3.21-7a31.2 31.2 0 0 0 1.15-10.57c-.41-4.27-1.95-10.24-2.34-12.69s.4-3.44 1.55-4.34c1.34-1.06 3.19-.59 4.18 2.85a66 66 0 0 1 2.2 14.57 33.181 33.181 0 0 1-1.67 10.77 38.88 38.88 0 0 1-4.1 8.46c-.47.79-.63 1.5-1.35 3.12a10.88 10.88 0 0 1-3.14 4.18c-1.2.86-1.77 1-2.06.82s-.28-.59.23-1a9.08 9.08 0 0 0 2.14-2.41s-1.05 1.06-1.74 1.64a9 9 0 0 1-2 1.28c-.7.31-1.68-.29-1.18-.76s1-.71 2-1.58a8.65 8.65 0 0 0 1.43-1.55 16.712 16.712 0 0 1-2.23 1.45 3.81 3.81 0 0 1-2 .55c-.37 0-.82-.54-.12-1a13.71 13.71 0 0 0 2.67-1.89c.77-.76 1.2-1.41 1-1.42s-.64.46-1.54.75-1.87 0-2-.47-.12-.41.72-.82ZM260.4 7.767c.57-3.67 3.22-6.45 7-6.24a7.28 7.28 0 0 1 3.71 13.3 7.45 7.45 0 0 1-.59 1.61c-1.33 1.56-5.38 2.56-6.56 2.36a3.45 3.45 0 0 1-3-2.47c-1.26-2.88-.87-6.74-.56-8.56Z" fill="#ffcea9"/><path data-name="Path 504" d="m271.12 14.827-.35-3.21s2.62-6.78-3.57-5.48c-4.08.86-5.11 1.24-6.35-1.5s3.11-5.21 8.34-4.52a7.18 7.18 0 0 1 6.44 7.29c-.13 2.02-.67 6.1-4.51 7.42Z" fill="#3a2c6d"/><path data-name="Path 505" d="M281.71 33.227s-3.38 3.36-7.37 2.39c-.57-.39-1.95-8.24-1.95-8.24s0-4.35 3.34-4.24 5.98 10.09 5.98 10.09Z" fill="#ededed"/><path data-name="Path 506" d="M256.21 26.707a3.67 3.67 0 0 1-2.5-1.11c.14-1.76 2.39-8.44 6.91-8.93a8.35 8.35 0 0 0-2.82 3.41 43.309 43.309 0 0 0-1.59 6.63Z" fill="#ededed"/><path data-name="Path 507" d="m459.36 311.147-83.52-48.22c-5.25-3-9.5-11.15-9.5-18.14v-131.41c0-7 4.25-10.2 9.5-7.18l83.52 48.23c5.24 3 9.49 11.15 9.49 18.14v131.43c0 7-4.25 10.18-9.49 7.15Z" fill="#707070"/><path data-name="Path 508" d="m462.7 313.067 2.86-1.41-1.93-3.79Z" fill="#211b49"/><path data-name="Path 509" d="M367.9 106.567a16.71 16.71 0 0 1 2.64-1.27l2.12 4.19Z" fill="#707070"/><path data-name="Path 510" d="m457.17 312.247-83.53-48.25c-5.24-3-9.49-11.15-9.49-18.14v-131.38c0-7 4.25-10.21 9.49-7.18l83.53 48.23c5.24 3 9.49 11.14 9.49 18.13v131.41c0 6.99-4.25 10.21-9.49 7.18Z" fill="#b1b4c4"/><path data-name="Path 511" d="m388.83 134.697-15.19-8.77v-5.48l15.19 8.77Z" fill="#e9eaf2"/><path data-name="Path 512" d="m456.22 173.607-64.54-37.27v-5.47l64.54 37.26Z" fill="#a5e0b1"/><path data-name="Path 513" d="m388.83 152.237-15.19-8.77v-5.48l15.19 8.77Z" fill="#e9eaf2"/><path data-name="Path 514" d="m434.39 178.537-42.71-24.66v-5.48l42.71 24.66Z" fill="#46c25f"/><path data-name="Path 515" d="m388.83 160.997-15.19-8.76v-5.48l15.19 8.76Z" fill="#e9eaf2"/><path data-name="Path 516" d="m444.83 193.337-53.15-30.69v-5.48l53.15 30.69Z" fill="#20b13c"/><path data-name="Path 517" d="m388.83 169.767-15.19-8.77v-5.48l15.19 8.77Z" fill="#e9eaf2"/><path data-name="Path 518" d="m428.7 192.787-37.02-21.37v-5.48l37.02 21.37Z" fill="#e1d2ea"/><path data-name="Path 519" d="m388.83 143.467-15.19-8.77v-5.48l15.19 8.77Z" fill="#e9eaf2"/><path data-name="Path 520" d="m423.95 163.747-32.27-18.64v-5.48l32.27 18.63Z" fill="#79d08a"/><path data-name="Path 521" d="m388.83 178.537-15.19-8.77v-5.48l15.19 8.77Z" fill="#e9eaf2"/><path data-name="Path 522" d="m410.66 191.137-18.98-10.96v-5.48l18.98 10.96Z" fill="#c2a6d4"/><path data-name="Path 523" d="m388.83 196.067-15.19-8.76v-5.48l15.19 8.77Z" fill="#e9eaf2"/><path data-name="Path 524" d="m451.48 232.237-59.8-34.52v-5.48l59.8 34.52Z" fill="#864daa"/><path data-name="Path 525" d="m388.83 204.837-15.19-8.77v-5.48l15.19 8.77Z" fill="#e9eaf2"/><path data-name="Path 526" d="m409.71 216.897-18.03-10.41v-5.48l18.03 10.41Z" fill="#682195"/><path data-name="Path 527" d="m388.83 213.607-15.19-8.77v-5.48l15.19 8.77Z" fill="#e9eaf2"/><path data-name="Path 528" d="m444.83 245.937-53.15-30.69v-5.47l53.15 30.68Z" fill="#d2f0d8"/><path data-name="Path 529" d="m388.83 187.307-15.19-8.77v-5.48l15.19 8.77Z" fill="#e9eaf2"/><path data-name="Path 530" d="m441.98 217.997-50.3-29.05v-5.48l50.3 29.05Z" fill="#a479bf"/><path data-name="Path 531" d="m388.83 222.377-15.19-8.77v-5.48l15.19 8.77Z" fill="#e9eaf2"/><path data-name="Path 532" d="m398.32 227.857-6.64-3.84v-5.48l6.64 3.84Z" fill="#a5e0b1"/><path data-name="Path 533" d="m388.83 239.907-15.19-8.76v-5.48l15.19 8.77Z" fill="#e9eaf2"/><path data-name="Path 534" d="m404.02 248.677-12.34-7.12v-5.48l12.34 7.12Z" fill="#46c25f"/><path data-name="Path 535" d="m388.83 248.677-15.19-8.77v-5.48l15.19 8.77Z" fill="#e9eaf2"/><path data-name="Path 536" d="m423.95 268.957-32.27-18.63v-5.48l32.27 18.63Z" fill="#46c25f"/><path data-name="Path 537" d="m388.83 257.447-15.19-8.77v-5.48l15.19 8.77Z" fill="#e9eaf2"/><path data-name="Path 538" d="m442.93 288.687-51.25-29.6v-5.48l51.25 29.6Z" fill="#20b13c"/><path data-name="Path 539" d="m388.83 231.147-15.19-8.77v-5.48l15.19 8.77Z" fill="#e9eaf2"/><path data-name="Path 540" d="m456.22 270.057-64.54-37.27v-5.48l64.54 37.26Z" fill="#79d08a"/><path data-name="Path 541" d="m36.08 211.937-9.12-4.68-19.11 11c-4.33 2.5-7.85.48-7.85-4.53v-20.82a17.36 17.36 0 0 1 7.85-13.6l113.81-65.73c4.33-2.5 7.85-.47 7.85 4.53v20.89a17.36 17.36 0 0 1-7.85 13.6l-76.52 44.14" fill="#b1b4c4"/><path data-name="Path 542" d="m126.66 112.767 4.3 1.74-3.64 3.74-2.58-4.13Z" fill="#b1b4c4"/><path data-name="Path 543" d="m36.08 211.937 4.53 1.82.01-3.9-4.01-.8Z" fill="#b1b4c4"/><path data-name="Path 544" d="M7.57 220.997c.17.36-4.91-1.72-5.09-2s6.16-4 6.16-4Z" fill="#b1b4c4"/><path data-name="Path 545" d="m49.67 198.547 76.52-44.17a17.39 17.39 0 0 0 7.85-13.6v-20.85c0-5-3.52-7-7.85-4.54l-113.85 65.73a17.38 17.38 0 0 0-7.85 13.6v20.85c0 5 3.52 7 7.85 4.53l19.11-11 9.16 4.69Z" fill="#e9eaf2"/><path data-name="Path 546" d="m123.83 133.527-109.13 63v-7.25l109.13-63.01Z" fill="#79d08a"/><path data-name="Path 547" d="m86.15 167.977-71.45 41.25v-7.26l71.45-41.25Z" fill="#79d08a"/></g></g>
      </svg>